# xmcd CD database file
#
# Track frame offsets:
#	187
#	13905
#	29772
#	46180
#	66272
#	81837
#
# Disc length: 1413 seconds
#
# Revision: 0
# Processed by: cddbd v1.5.1PL0 Copyright (c) Steve Scherf et al.
# Submitted via: CDex 1.50
#
DISCID=4c058306
DTITLE=野澤恵 - あやっ？
DYEAR=1990
DGENRE=JPop
TTITLE0=歌ってNANBO！〜ぼくらの原っぱで
TTITLE1=LUNATICA〜月夜のたねあかし
TTITLE2=ヒロインじゃ物足りない
TTITLE3=非ユークリッドの平行線
TTITLE4=遅れてきた勇者たち
TTITLE5=ラストトライアル
EXTD=YEAR: 1990
EXTT0=
EXTT1=
EXTT2=
EXTT3=
EXTT4=
EXTT5=
PLAYORDER=
